<svg width="20" height="20" viewBox="0 0 20 20" fill="none" xmlns="http://www.w3.org/2000/svg">
<path d="M14.773 13.4173C13.4131 14.7942 10 18.25 10 18.25C10 18.25 6.50318 14.7094 5.22703 13.4173C2.59099 10.7482 2.59099 6.42083 5.22703 3.75179C7.86307 1.08274 12.1369 1.08274 14.773 3.75179C17.409 6.42083 17.409 10.7482 14.773 13.4173Z" stroke="black" stroke-width="1.5" stroke-linejoin="round"/>
<path d="M12.25 8C12.25 9.24264 11.2426 10.25 10 10.25C8.75736 10.25 7.75 9.24264 7.75 8C7.75 6.75736 8.75736 5.75 10 5.75C11.2426 5.75 12.25 6.75736 12.25 8Z" stroke="black" stroke-width="1.5" stroke-linejoin="round"/>
</svg>
